<svg xmlns="http://www.w3.org/2000/svg" version="1.1" xmlns:xlink="http://www.w3.org/1999/xlink" xmlns:svgjs="http://svgjs.com/svgjs" width="107" height="89"><svg width="107" height="89" viewBox="0 0 107 89" fill="none" xmlns="http://www.w3.org/2000/svg">
<rect width="107" height="89" fill="#1A1E1D"></rect>
<path d="M26.384 32.264V37.88L26.432 38.984C26.48 39.496 26.608 39.864 26.816 40.088C27.024 40.312 27.376 40.456 27.872 40.52L29.096 40.616V41H17.576V40.616H18.32C18.672 40.568 19.008 40.528 19.328 40.496C19.648 40.448 19.896 40.328 20.072 40.136C20.264 39.928 20.384 39.568 20.432 39.056L20.48 37.952V26.576L20.432 25.472C20.384 24.96 20.264 24.6 20.072 24.392C19.88 24.184 19.608 24.056 19.256 24.008C18.904 23.96 18.6 23.936 18.344 23.936C18.088 23.92 17.848 23.904 17.624 23.888V23.504L28.352 23.48C29.84 23.48 31.048 23.544 31.976 23.672C32.904 23.8 33.656 24.056 34.232 24.44C34.824 24.824 35.288 25.304 35.624 25.88C35.976 26.44 36.152 27.096 36.152 27.848C36.152 28.408 36.048 28.968 35.84 29.528C35.648 30.088 35.344 30.568 34.928 30.968C34.512 31.368 33.992 31.68 33.368 31.904C32.76 32.128 31.784 32.24 30.44 32.24V32.408C31.256 32.584 31.936 32.752 32.48 32.912C33.04 33.072 33.544 33.304 33.992 33.608C34.44 33.912 34.84 34.368 35.192 34.976C35.56 35.568 35.856 36.224 36.08 36.944C36.304 37.648 36.504 38.152 36.68 38.456C36.856 38.744 37.104 38.888 37.424 38.888C37.84 38.888 38.112 38.624 38.24 38.096C38.384 37.552 38.456 36.936 38.456 36.248H38.84C38.84 37.032 38.792 37.656 38.696 38.12C38.6 38.584 38.36 39.072 37.976 39.584C37.592 40.08 37.04 40.488 36.32 40.808C35.616 41.112 34.848 41.264 34.016 41.264C32.72 41.264 31.68 40.896 30.896 40.16C30.128 39.408 29.648 38.432 29.456 37.232C29.28 36.016 29.136 34.992 29.024 34.16C28.848 33.232 28.616 32.696 28.328 32.552C28.04 32.392 27.728 32.304 27.392 32.288C27.056 32.272 26.72 32.264 26.384 32.264ZM28.304 31.76C28.912 31.664 29.368 31.224 29.672 30.44C29.992 29.656 30.152 28.784 30.152 27.824C30.152 27.04 29.992 26.272 29.672 25.52C29.352 24.752 28.968 24.304 28.52 24.176C28.072 24.048 27.672 23.976 27.32 23.96C26.968 23.944 26.656 23.928 26.384 23.912V31.832H27.2C27.648 31.832 28.016 31.808 28.304 31.76ZM51.6106 39.8C51.9946 39.8 52.2586 39.568 52.4026 39.104C52.5626 38.624 52.6426 38.056 52.6426 37.4H52.9786C52.9786 38.808 52.7226 39.736 52.2106 40.184C51.7146 40.632 51.2666 40.912 50.8666 41.024C50.4666 41.152 49.9546 41.216 49.3306 41.216C48.6426 41.216 48.0266 41.04 47.4826 40.688C46.9546 40.336 46.6346 39.864 46.5226 39.272C46.2666 39.928 45.8346 40.424 45.2266 40.76C44.6346 41.08 43.8586 41.24 42.8986 41.24C41.8746 41.24 41.0426 40.96 40.4026 40.4C39.7626 39.84 39.4426 39.064 39.4426 38.072C39.4426 37.272 39.6426 36.632 40.0426 36.152C40.4426 35.656 40.8506 35.352 41.2666 35.24C41.6826 35.128 42.3226 35.032 43.1866 34.952C44.0506 34.872 44.6826 34.784 45.0826 34.688C45.4986 34.576 45.7946 34.464 45.9706 34.352C46.1466 34.224 46.2346 34.016 46.2346 33.728L46.2106 31.544C46.2106 30.92 46.1306 30.472 45.9706 30.2C45.8106 29.928 45.4746 29.792 44.9626 29.792C44.6426 29.792 44.3706 29.864 44.1466 30.008C43.9386 30.152 43.8346 30.336 43.8346 30.56C43.8346 30.736 44.0026 30.96 44.3386 31.232C44.6906 31.488 44.8666 31.88 44.8666 32.408C44.8666 32.904 44.6426 33.344 44.1946 33.728C43.7626 34.112 43.0506 34.304 42.0586 34.304C41.5146 34.304 41.0346 34.16 40.6186 33.872C40.2186 33.568 40.0186 33.168 40.0186 32.672C40.0186 31.68 40.5706 30.888 41.6746 30.296C42.7946 29.704 44.1226 29.408 45.6586 29.408C46.9546 29.408 48.1466 29.68 49.2346 30.224C50.3226 30.752 50.8666 31.576 50.8666 32.696V38.192C50.8666 38.704 50.9146 39.096 51.0106 39.368C51.0906 39.656 51.2906 39.8 51.6106 39.8ZM46.2346 39.104V34.52L46.1626 34.496C46.0186 34.688 45.7466 34.872 45.3466 35.048C44.9626 35.208 44.6906 35.368 44.5306 35.528C44.3866 35.688 44.2666 36 44.1706 36.464C44.0906 36.912 44.0506 37.376 44.0506 37.856C44.0506 38.576 44.1066 39.152 44.2186 39.584C44.3306 40.016 44.5866 40.232 44.9866 40.232C45.2906 40.232 45.5546 40.112 45.7786 39.872C46.0186 39.632 46.1706 39.376 46.2346 39.104ZM61.1913 31.28C61.1273 30.88 60.9513 30.576 60.6633 30.368C60.3753 30.16 60.0393 30.056 59.6553 30.056C59.1593 30.056 58.7833 30.296 58.5273 30.776C58.2873 31.24 58.1273 31.776 58.0473 32.384C57.9833 32.976 57.9433 33.52 57.9273 34.016C57.9113 34.496 57.9033 34.944 57.9033 35.36V36.44C57.9033 36.744 57.9353 37.272 57.9993 38.024C58.0793 38.776 58.2393 39.392 58.4793 39.872C58.7353 40.352 59.1193 40.592 59.6313 40.592C60.5113 40.592 61.0233 40.168 61.1673 39.32C61.1993 38.952 61.2233 38.304 61.2393 37.376C61.2553 36.432 61.2633 35.728 61.2633 35.264V33.056C61.2633 32.384 61.2393 31.792 61.1913 31.28ZM61.2633 29.552V26.48L61.2153 25.376C61.2153 24.848 61.1353 24.496 60.9753 24.32C60.8153 24.144 60.4713 24.024 59.9433 23.96L58.8153 23.888V23.504H65.8713V38.36L65.8953 39.344C65.8953 39.776 65.9673 40.08 66.1113 40.256C66.2713 40.416 66.5673 40.52 66.9993 40.568L67.7673 40.616V41H61.3113V39.8C61.1353 40.12 60.8473 40.44 60.4473 40.76C60.0633 41.08 59.3273 41.24 58.2393 41.24C56.7033 41.24 55.4553 40.704 54.4953 39.632C53.5353 38.56 53.0553 37.104 53.0553 35.264C53.0553 33.488 53.5353 32.064 54.4953 30.992C55.4553 29.92 56.7033 29.384 58.2393 29.384C59.3593 29.384 60.1033 29.536 60.4713 29.84C60.8393 30.144 61.1113 30.464 61.2873 30.8L61.2633 29.552ZM75.5696 41H67.7936V40.616L68.3696 40.592C68.8336 40.544 69.1136 40.432 69.2096 40.256C69.3056 40.08 69.3536 39.696 69.3536 39.104L69.3776 38V32.264L69.3536 31.28C69.3216 30.896 69.2736 30.608 69.2096 30.416C69.1456 30.224 68.8576 30.104 68.3456 30.056L67.6976 30.008V29.624H73.9856V38L74.0096 39.104C74.0096 39.68 74.0576 40.064 74.1536 40.256C74.2496 40.432 74.5296 40.544 74.9936 40.592L75.5696 40.616V41ZM69.3296 25.616C69.3296 24.992 69.5536 24.464 70.0016 24.032C70.4656 23.584 71.0176 23.36 71.6576 23.36C72.3136 23.36 72.8656 23.576 73.3136 24.008C73.7776 24.424 74.0096 24.96 74.0096 25.616C74.0096 26.256 73.7776 26.8 73.3136 27.248C72.8656 27.68 72.3136 27.896 71.6576 27.896C71.0176 27.896 70.4656 27.68 70.0016 27.248C69.5536 26.8 69.3296 26.256 69.3296 25.616ZM89.0778 35.312C89.0778 37.008 88.4298 38.424 87.1338 39.56C85.8538 40.68 84.3418 41.24 82.5978 41.24C80.7578 41.24 79.2138 40.68 77.9658 39.56C76.7338 38.424 76.1178 37.008 76.1178 35.312C76.1178 33.616 76.7418 32.208 77.9898 31.088C79.2538 29.952 80.7898 29.384 82.5978 29.384C84.3738 29.384 85.8938 29.944 87.1578 31.064C88.4378 32.184 89.0778 33.6 89.0778 35.312ZM84.3018 35.288C84.3018 35.064 84.2858 34.616 84.2538 33.944C84.2218 33.272 84.2058 32.872 84.2058 32.744C84.2058 31.88 84.0698 31.168 83.7978 30.608C83.5418 30.048 83.1338 29.768 82.5738 29.768C82.0618 29.768 81.6698 30.064 81.3978 30.656C81.1258 31.232 80.9898 31.928 80.9898 32.744C80.9898 33.048 80.9738 33.424 80.9418 33.872C80.9258 34.304 80.9098 34.776 80.8938 35.288C80.8938 35.512 80.9098 35.976 80.9418 36.68C80.9738 37.368 80.9898 37.768 80.9898 37.88C80.9898 38.744 81.1178 39.456 81.3738 40.016C81.6458 40.576 82.0538 40.856 82.5978 40.856C83.1258 40.856 83.5258 40.568 83.7978 39.992C84.0698 39.416 84.2058 38.712 84.2058 37.88C84.2058 37.56 84.2138 37.184 84.2298 36.752C84.2458 36.304 84.2698 35.816 84.3018 35.288ZM27.632 65.288C24.88 65.288 22.616 64.44 20.84 62.744C19.08 61.032 18.2 58.872 18.2 56.264C18.2 53.592 19.072 51.424 20.816 49.76C22.576 48.08 24.84 47.24 27.608 47.24C28.792 47.24 29.816 47.44 30.68 47.84L33.224 49.28C33.704 49.28 34.024 49.12 34.184 48.8C34.344 48.464 34.456 47.992 34.52 47.384H35V54.968H34.592C33.888 53.016 33.384 51.696 33.08 51.008C32.792 50.32 32.304 49.656 31.616 49.016C30.928 48.376 30.048 48.056 28.976 48.056C27.584 48.056 26.552 48.84 25.88 50.408C25.208 51.976 24.872 53.808 24.872 55.904C24.872 58.16 25.272 60.12 26.072 61.784C26.888 63.432 28.08 64.256 29.648 64.256C31.104 64.256 32.272 63.728 33.152 62.672C34.032 61.616 34.616 60.24 34.904 58.544L35.312 58.616C35.088 60.536 34.36 62.128 33.128 63.392C31.896 64.656 30.064 65.288 27.632 65.288ZM43.9993 65H36.2233V64.616L36.7993 64.592C37.2633 64.544 37.5433 64.432 37.6393 64.256C37.7353 64.08 37.7833 63.696 37.7833 63.104L37.8073 62V56.264L37.7833 55.28C37.7513 54.896 37.7033 54.608 37.6393 54.416C37.5753 54.224 37.2873 54.104 36.7753 54.056L36.1273 54.008V53.624H42.4153V62L42.4393 63.104C42.4393 63.68 42.4873 64.064 42.5833 64.256C42.6793 64.432 42.9593 64.544 43.4233 64.592L43.9993 64.616V65ZM37.7593 49.616C37.7593 48.992 37.9833 48.464 38.4313 48.032C38.8953 47.584 39.4473 47.36 40.0873 47.36C40.7433 47.36 41.2953 47.576 41.7433 48.008C42.2073 48.424 42.4393 48.96 42.4393 49.616C42.4393 50.256 42.2073 50.8 41.7433 51.248C41.2953 51.68 40.7433 51.896 40.0873 51.896C39.4473 51.896 38.8953 51.68 38.4313 51.248C37.9833 50.8 37.7593 50.256 37.7593 49.616ZM45.7715 54.536H44.1395V53.888C44.6835 53.744 45.2515 53.48 45.8435 53.096C46.4355 52.696 46.9955 52.24 47.5235 51.728C48.0675 51.2 48.5155 50.688 48.8675 50.192C49.2355 49.696 49.5155 49.248 49.7075 48.848H50.3795V53.624H53.5235L53.1875 54.536H50.3795V61.064L50.4275 62.288C50.4275 62.976 50.5795 63.496 50.8835 63.848C51.1875 64.2 51.5715 64.376 52.0355 64.376C52.6595 64.376 53.1155 64.12 53.4035 63.608C53.6915 63.08 53.8355 62.496 53.8355 61.856H54.1715C54.1715 62.752 53.9075 63.544 53.3795 64.232C52.8515 64.904 51.7155 65.24 49.9715 65.24C48.8675 65.24 47.8915 64.952 47.0435 64.376C46.1955 63.8 45.7715 62.992 45.7715 61.952V54.536ZM55.3312 55.256C55.1392 54.856 54.9792 54.576 54.8512 54.416C54.7232 54.24 54.5552 54.128 54.3472 54.08L53.4112 54.008V53.624H61.2592V54.008H60.8992C60.7712 54.008 60.6032 54.032 60.3952 54.08C60.2032 54.112 60.1072 54.272 60.1072 54.56C60.1072 54.688 60.1392 54.856 60.2032 55.064C60.2672 55.256 60.3312 55.448 60.3952 55.64L62.2672 60.104C62.4272 59.72 62.6832 59.096 63.0352 58.232C63.3872 57.352 63.6672 56.608 63.8752 56C64.0832 55.392 64.1872 54.952 64.1872 54.68C64.1872 54.472 64.1472 54.328 64.0672 54.248C64.0032 54.168 63.8112 54.104 63.4912 54.056L62.7232 54.008V53.624H66.7312V54.008C66.6352 54.008 66.5312 54.016 66.4192 54.032C66.3232 54.032 66.1312 54.056 65.8432 54.104C65.5712 54.152 65.3392 54.296 65.1472 54.536C64.9552 54.776 64.5952 55.56 64.0672 56.888C63.5552 58.216 62.9952 59.624 62.3872 61.112C61.7952 62.6 61.1232 64.144 60.3712 65.744C59.6352 67.344 58.9392 68.544 58.2832 69.344C57.6432 70.144 56.7792 70.544 55.6912 70.544C55.0512 70.544 54.4592 70.328 53.9152 69.896C53.3872 69.464 53.1232 68.904 53.1232 68.216C53.1232 67.576 53.3392 67.032 53.7712 66.584C54.2032 66.136 54.7552 65.912 55.4272 65.912C56.1152 65.912 56.6512 66.112 57.0352 66.512C57.4192 66.912 57.6112 67.384 57.6112 67.928C57.6112 68.472 57.4592 68.912 57.1552 69.248C56.8512 69.584 56.6992 69.784 56.6992 69.848C56.8432 69.832 56.9952 69.816 57.1552 69.8C57.5072 69.64 57.8432 69.336 58.1632 68.888C58.4992 68.44 58.7952 67.976 59.0512 67.496C59.3072 67.016 59.5792 66.448 59.8672 65.792C59.5152 64.96 59.0752 63.936 58.5472 62.72C58.0352 61.488 57.4592 60.136 56.8192 58.664C56.1952 57.192 55.6992 56.056 55.3312 55.256Z" fill="white"></path>
</svg><style>@media (prefers-color-scheme: light) { :root { filter: none; } }
</style></svg>