<svg width="145" height="89" viewBox="0 0 145 89" fill="none" xmlns="http://www.w3.org/2000/svg">
<rect width="145" height="89" fill="#1A1E1D"/>
<path d="M30.384 32.264V37.88L30.432 38.984C30.48 39.496 30.608 39.864 30.816 40.088C31.024 40.312 31.376 40.456 31.872 40.52L33.096 40.616V41H21.576V40.616H22.32C22.672 40.568 23.008 40.528 23.328 40.496C23.648 40.448 23.896 40.328 24.072 40.136C24.264 39.928 24.384 39.568 24.432 39.056L24.48 37.952V26.576L24.432 25.472C24.384 24.96 24.264 24.6 24.072 24.392C23.88 24.184 23.608 24.056 23.256 24.008C22.904 23.96 22.6 23.936 22.344 23.936C22.088 23.92 21.848 23.904 21.624 23.888V23.504L32.352 23.48C33.84 23.48 35.048 23.544 35.976 23.672C36.904 23.8 37.656 24.056 38.232 24.44C38.824 24.824 39.288 25.304 39.624 25.88C39.976 26.44 40.152 27.096 40.152 27.848C40.152 28.408 40.048 28.968 39.84 29.528C39.648 30.088 39.344 30.568 38.928 30.968C38.512 31.368 37.992 31.68 37.368 31.904C36.76 32.128 35.784 32.24 34.44 32.24V32.408C35.256 32.584 35.936 32.752 36.48 32.912C37.04 33.072 37.544 33.304 37.992 33.608C38.44 33.912 38.84 34.368 39.192 34.976C39.56 35.568 39.856 36.224 40.08 36.944C40.304 37.648 40.504 38.152 40.68 38.456C40.856 38.744 41.104 38.888 41.424 38.888C41.84 38.888 42.112 38.624 42.24 38.096C42.384 37.552 42.456 36.936 42.456 36.248H42.84C42.84 37.032 42.792 37.656 42.696 38.12C42.6 38.584 42.36 39.072 41.976 39.584C41.592 40.08 41.04 40.488 40.32 40.808C39.616 41.112 38.848 41.264 38.016 41.264C36.72 41.264 35.68 40.896 34.896 40.16C34.128 39.408 33.648 38.432 33.456 37.232C33.28 36.016 33.136 34.992 33.024 34.16C32.848 33.232 32.616 32.696 32.328 32.552C32.04 32.392 31.728 32.304 31.392 32.288C31.056 32.272 30.72 32.264 30.384 32.264ZM32.304 31.76C32.912 31.664 33.368 31.224 33.672 30.44C33.992 29.656 34.152 28.784 34.152 27.824C34.152 27.04 33.992 26.272 33.672 25.52C33.352 24.752 32.968 24.304 32.52 24.176C32.072 24.048 31.672 23.976 31.32 23.96C30.968 23.944 30.656 23.928 30.384 23.912V31.832H31.2C31.648 31.832 32.016 31.808 32.304 31.76ZM55.6106 39.8C55.9946 39.8 56.2586 39.568 56.4026 39.104C56.5626 38.624 56.6426 38.056 56.6426 37.4H56.9786C56.9786 38.808 56.7226 39.736 56.2106 40.184C55.7146 40.632 55.2666 40.912 54.8666 41.024C54.4666 41.152 53.9546 41.216 53.3306 41.216C52.6426 41.216 52.0266 41.04 51.4826 40.688C50.9546 40.336 50.6346 39.864 50.5226 39.272C50.2666 39.928 49.8346 40.424 49.2266 40.76C48.6346 41.08 47.8586 41.24 46.8986 41.24C45.8746 41.24 45.0426 40.96 44.4026 40.4C43.7626 39.84 43.4426 39.064 43.4426 38.072C43.4426 37.272 43.6426 36.632 44.0426 36.152C44.4426 35.656 44.8506 35.352 45.2666 35.24C45.6826 35.128 46.3226 35.032 47.1866 34.952C48.0506 34.872 48.6826 34.784 49.0826 34.688C49.4986 34.576 49.7946 34.464 49.9706 34.352C50.1466 34.224 50.2346 34.016 50.2346 33.728L50.2106 31.544C50.2106 30.92 50.1306 30.472 49.9706 30.2C49.8106 29.928 49.4746 29.792 48.9626 29.792C48.6426 29.792 48.3706 29.864 48.1466 30.008C47.9386 30.152 47.8346 30.336 47.8346 30.56C47.8346 30.736 48.0026 30.96 48.3386 31.232C48.6906 31.488 48.8666 31.88 48.8666 32.408C48.8666 32.904 48.6426 33.344 48.1946 33.728C47.7626 34.112 47.0506 34.304 46.0586 34.304C45.5146 34.304 45.0346 34.16 44.6186 33.872C44.2186 33.568 44.0186 33.168 44.0186 32.672C44.0186 31.68 44.5706 30.888 45.6746 30.296C46.7946 29.704 48.1226 29.408 49.6586 29.408C50.9546 29.408 52.1466 29.68 53.2346 30.224C54.3226 30.752 54.8666 31.576 54.8666 32.696V38.192C54.8666 38.704 54.9146 39.096 55.0106 39.368C55.0906 39.656 55.2906 39.8 55.6106 39.8ZM50.2346 39.104V34.52L50.1626 34.496C50.0186 34.688 49.7466 34.872 49.3466 35.048C48.9626 35.208 48.6906 35.368 48.5306 35.528C48.3866 35.688 48.2666 36 48.1706 36.464C48.0906 36.912 48.0506 37.376 48.0506 37.856C48.0506 38.576 48.1066 39.152 48.2186 39.584C48.3306 40.016 48.5866 40.232 48.9866 40.232C49.2906 40.232 49.5546 40.112 49.7786 39.872C50.0186 39.632 50.1706 39.376 50.2346 39.104ZM65.1913 31.28C65.1273 30.88 64.9513 30.576 64.6633 30.368C64.3753 30.16 64.0393 30.056 63.6553 30.056C63.1593 30.056 62.7833 30.296 62.5273 30.776C62.2873 31.24 62.1273 31.776 62.0473 32.384C61.9833 32.976 61.9433 33.52 61.9273 34.016C61.9113 34.496 61.9033 34.944 61.9033 35.36V36.44C61.9033 36.744 61.9353 37.272 61.9993 38.024C62.0793 38.776 62.2393 39.392 62.4793 39.872C62.7353 40.352 63.1193 40.592 63.6313 40.592C64.5113 40.592 65.0233 40.168 65.1673 39.32C65.1993 38.952 65.2233 38.304 65.2393 37.376C65.2553 36.432 65.2633 35.728 65.2633 35.264V33.056C65.2633 32.384 65.2393 31.792 65.1913 31.28ZM65.2633 29.552V26.48L65.2153 25.376C65.2153 24.848 65.1353 24.496 64.9753 24.32C64.8153 24.144 64.4713 24.024 63.9433 23.96L62.8153 23.888V23.504H69.8713V38.36L69.8953 39.344C69.8953 39.776 69.9673 40.08 70.1113 40.256C70.2713 40.416 70.5673 40.52 70.9993 40.568L71.7673 40.616V41H65.3113V39.8C65.1353 40.12 64.8473 40.44 64.4473 40.76C64.0633 41.08 63.3273 41.24 62.2393 41.24C60.7033 41.24 59.4553 40.704 58.4953 39.632C57.5353 38.56 57.0553 37.104 57.0553 35.264C57.0553 33.488 57.5353 32.064 58.4953 30.992C59.4553 29.92 60.7033 29.384 62.2393 29.384C63.3593 29.384 64.1033 29.536 64.4713 29.84C64.8393 30.144 65.1113 30.464 65.2873 30.8L65.2633 29.552ZM79.5696 41H71.7936V40.616L72.3696 40.592C72.8336 40.544 73.1136 40.432 73.2096 40.256C73.3056 40.08 73.3536 39.696 73.3536 39.104L73.3776 38V32.264L73.3536 31.28C73.3216 30.896 73.2736 30.608 73.2096 30.416C73.1456 30.224 72.8576 30.104 72.3456 30.056L71.6976 30.008V29.624H77.9856V38L78.0096 39.104C78.0096 39.68 78.0576 40.064 78.1536 40.256C78.2496 40.432 78.5296 40.544 78.9936 40.592L79.5696 40.616V41ZM73.3296 25.616C73.3296 24.992 73.5536 24.464 74.0016 24.032C74.4656 23.584 75.0176 23.36 75.6576 23.36C76.3136 23.36 76.8656 23.576 77.3136 24.008C77.7776 24.424 78.0096 24.96 78.0096 25.616C78.0096 26.256 77.7776 26.8 77.3136 27.248C76.8656 27.68 76.3136 27.896 75.6576 27.896C75.0176 27.896 74.4656 27.68 74.0016 27.248C73.5536 26.8 73.3296 26.256 73.3296 25.616ZM93.0778 35.312C93.0778 37.008 92.4298 38.424 91.1338 39.56C89.8538 40.68 88.3418 41.24 86.5978 41.24C84.7578 41.24 83.2138 40.68 81.9658 39.56C80.7338 38.424 80.1178 37.008 80.1178 35.312C80.1178 33.616 80.7418 32.208 81.9898 31.088C83.2538 29.952 84.7898 29.384 86.5978 29.384C88.3738 29.384 89.8938 29.944 91.1578 31.064C92.4378 32.184 93.0778 33.6 93.0778 35.312ZM88.3018 35.288C88.3018 35.064 88.2858 34.616 88.2538 33.944C88.2218 33.272 88.2058 32.872 88.2058 32.744C88.2058 31.88 88.0698 31.168 87.7978 30.608C87.5418 30.048 87.1338 29.768 86.5738 29.768C86.0618 29.768 85.6698 30.064 85.3978 30.656C85.1258 31.232 84.9898 31.928 84.9898 32.744C84.9898 33.048 84.9738 33.424 84.9418 33.872C84.9258 34.304 84.9098 34.776 84.8938 35.288C84.8938 35.512 84.9098 35.976 84.9418 36.68C84.9738 37.368 84.9898 37.768 84.9898 37.88C84.9898 38.744 85.1178 39.456 85.3738 40.016C85.6458 40.576 86.0538 40.856 86.5978 40.856C87.1258 40.856 87.5258 40.568 87.7978 39.992C88.0698 39.416 88.2058 38.712 88.2058 37.88C88.2058 37.56 88.2138 37.184 88.2298 36.752C88.2458 36.304 88.2698 35.816 88.3018 35.288ZM31.632 65.288C28.88 65.288 26.616 64.44 24.84 62.744C23.08 61.032 22.2 58.872 22.2 56.264C22.2 53.592 23.072 51.424 24.816 49.76C26.576 48.08 28.84 47.24 31.608 47.24C32.792 47.24 33.816 47.44 34.68 47.84L37.224 49.28C37.704 49.28 38.024 49.12 38.184 48.8C38.344 48.464 38.456 47.992 38.52 47.384H39V54.968H38.592C37.888 53.016 37.384 51.696 37.08 51.008C36.792 50.32 36.304 49.656 35.616 49.016C34.928 48.376 34.048 48.056 32.976 48.056C31.584 48.056 30.552 48.84 29.88 50.408C29.208 51.976 28.872 53.808 28.872 55.904C28.872 58.16 29.272 60.12 30.072 61.784C30.888 63.432 32.08 64.256 33.648 64.256C35.104 64.256 36.272 63.728 37.152 62.672C38.032 61.616 38.616 60.24 38.904 58.544L39.312 58.616C39.088 60.536 38.36 62.128 37.128 63.392C35.896 64.656 34.064 65.288 31.632 65.288ZM47.9993 65H40.2233V64.616L40.7993 64.592C41.2633 64.544 41.5433 64.432 41.6393 64.256C41.7353 64.08 41.7833 63.696 41.7833 63.104L41.8073 62V56.264L41.7833 55.28C41.7513 54.896 41.7033 54.608 41.6393 54.416C41.5753 54.224 41.2873 54.104 40.7753 54.056L40.1273 54.008V53.624H46.4153V62L46.4393 63.104C46.4393 63.68 46.4873 64.064 46.5833 64.256C46.6793 64.432 46.9593 64.544 47.4233 64.592L47.9993 64.616V65ZM41.7593 49.616C41.7593 48.992 41.9833 48.464 42.4313 48.032C42.8953 47.584 43.4473 47.36 44.0873 47.36C44.7433 47.36 45.2953 47.576 45.7433 48.008C46.2073 48.424 46.4393 48.96 46.4393 49.616C46.4393 50.256 46.2073 50.8 45.7433 51.248C45.2953 51.68 44.7433 51.896 44.0873 51.896C43.4473 51.896 42.8953 51.68 42.4313 51.248C41.9833 50.8 41.7593 50.256 41.7593 49.616ZM49.7715 54.536H48.1395V53.888C48.6835 53.744 49.2515 53.48 49.8435 53.096C50.4355 52.696 50.9955 52.24 51.5235 51.728C52.0675 51.2 52.5155 50.688 52.8675 50.192C53.2355 49.696 53.5155 49.248 53.7075 48.848H54.3795V53.624H57.5235L57.1875 54.536H54.3795V61.064L54.4275 62.288C54.4275 62.976 54.5795 63.496 54.8835 63.848C55.1875 64.2 55.5715 64.376 56.0355 64.376C56.6595 64.376 57.1155 64.12 57.4035 63.608C57.6915 63.08 57.8355 62.496 57.8355 61.856H58.1715C58.1715 62.752 57.9075 63.544 57.3795 64.232C56.8515 64.904 55.7155 65.24 53.9715 65.24C52.8675 65.24 51.8915 64.952 51.0435 64.376C50.1955 63.8 49.7715 62.992 49.7715 61.952V54.536ZM59.3312 55.256C59.1392 54.856 58.9792 54.576 58.8512 54.416C58.7232 54.24 58.5552 54.128 58.3472 54.08L57.4112 54.008V53.624H65.2592V54.008H64.8992C64.7712 54.008 64.6032 54.032 64.3952 54.08C64.2032 54.112 64.1072 54.272 64.1072 54.56C64.1072 54.688 64.1392 54.856 64.2032 55.064C64.2672 55.256 64.3312 55.448 64.3952 55.64L66.2672 60.104C66.4272 59.72 66.6832 59.096 67.0352 58.232C67.3872 57.352 67.6672 56.608 67.8752 56C68.0832 55.392 68.1872 54.952 68.1872 54.68C68.1872 54.472 68.1472 54.328 68.0672 54.248C68.0032 54.168 67.8112 54.104 67.4912 54.056L66.7232 54.008V53.624H70.7312V54.008C70.6352 54.008 70.5312 54.016 70.4192 54.032C70.3232 54.032 70.1312 54.056 69.8432 54.104C69.5712 54.152 69.3392 54.296 69.1472 54.536C68.9552 54.776 68.5952 55.56 68.0672 56.888C67.5552 58.216 66.9952 59.624 66.3872 61.112C65.7952 62.6 65.1232 64.144 64.3712 65.744C63.6352 67.344 62.9392 68.544 62.2832 69.344C61.6432 70.144 60.7792 70.544 59.6912 70.544C59.0512 70.544 58.4592 70.328 57.9152 69.896C57.3872 69.464 57.1232 68.904 57.1232 68.216C57.1232 67.576 57.3392 67.032 57.7712 66.584C58.2032 66.136 58.7552 65.912 59.4272 65.912C60.1152 65.912 60.6512 66.112 61.0352 66.512C61.4192 66.912 61.6112 67.384 61.6112 67.928C61.6112 68.472 61.4592 68.912 61.1552 69.248C60.8512 69.584 60.6992 69.784 60.6992 69.848C60.8432 69.832 60.9952 69.816 61.1552 69.8C61.5072 69.64 61.8432 69.336 62.1632 68.888C62.4992 68.44 62.7952 67.976 63.0512 67.496C63.3072 67.016 63.5792 66.448 63.8672 65.792C63.5152 64.96 63.0752 63.936 62.5472 62.72C62.0352 61.488 61.4592 60.136 60.8192 58.664C60.1952 57.192 59.6992 56.056 59.3312 55.256Z" fill="white"/>
</svg>
