<svg width="159" height="33" viewBox="0 0 159 33" fill="none" xmlns="http://www.w3.org/2000/svg">
<g clip-path="url(#clip0_87_740)">
<path d="M11.73 15.08V22.1L11.79 23.48C11.85 24.12 12.01 24.58 12.27 24.86C12.53 25.14 12.97 25.32 13.59 25.4L15.12 25.52V26H0.72V25.52H1.65C2.09 25.46 2.51 25.41 2.91 25.37C3.31 25.31 3.62 25.16 3.84 24.92C4.08 24.66 4.23 24.21 4.29 23.57L4.35 22.19V7.97L4.29 6.59C4.23 5.95 4.08 5.5 3.84 5.24C3.6 4.98 3.26 4.82 2.82 4.76C2.38 4.7 2 4.67 1.68 4.67C1.36 4.65 1.06 4.63 0.78 4.61V4.13L14.19 4.1C16.05 4.1 17.56 4.18 18.72 4.34C19.88 4.5 20.82 4.82 21.54 5.3C22.28 5.78 22.86 6.38 23.28 7.1C23.72 7.8 23.94 8.62 23.94 9.56C23.94 10.26 23.81 10.96 23.55 11.66C23.31 12.36 22.93 12.96 22.41 13.46C21.89 13.96 21.24 14.35 20.46 14.63C19.7 14.91 18.48 15.05 16.8 15.05V15.26C17.82 15.48 18.67 15.69 19.35 15.89C20.05 16.09 20.68 16.38 21.24 16.76C21.8 17.14 22.3 17.71 22.74 18.47C23.2 19.21 23.57 20.03 23.85 20.93C24.13 21.81 24.38 22.44 24.6 22.82C24.82 23.18 25.13 23.36 25.53 23.36C26.05 23.36 26.39 23.03 26.55 22.37C26.73 21.69 26.82 20.92 26.82 20.06H27.3C27.3 21.04 27.24 21.82 27.12 22.4C27 22.98 26.7 23.59 26.22 24.23C25.74 24.85 25.05 25.36 24.15 25.76C23.27 26.14 22.31 26.33 21.27 26.33C19.65 26.33 18.35 25.87 17.37 24.95C16.41 24.01 15.81 22.79 15.57 21.29C15.35 19.77 15.17 18.49 15.03 17.45C14.81 16.29 14.52 15.62 14.16 15.44C13.8 15.24 13.41 15.13 12.99 15.11C12.57 15.09 12.15 15.08 11.73 15.08ZM14.13 14.45C14.89 14.33 15.46 13.78 15.84 12.8C16.24 11.82 16.44 10.73 16.44 9.53C16.44 8.55 16.24 7.59 15.84 6.65C15.44 5.69 14.96 5.13 14.4 4.97C13.84 4.81 13.34 4.72 12.9 4.7C12.46 4.68 12.07 4.66 11.73 4.64V14.54H12.75C13.31 14.54 13.77 14.51 14.13 14.45ZM43.2633 24.5C43.7433 24.5 44.0733 24.21 44.2533 23.63C44.4533 23.03 44.5533 22.32 44.5533 21.5H44.9733C44.9733 23.26 44.6533 24.42 44.0133 24.98C43.3933 25.54 42.8333 25.89 42.3333 26.03C41.8333 26.19 41.1933 26.27 40.4133 26.27C39.5533 26.27 38.7833 26.05 38.1033 25.61C37.4433 25.17 37.0433 24.58 36.9033 23.84C36.5833 24.66 36.0433 25.28 35.2833 25.7C34.5433 26.1 33.5733 26.3 32.3733 26.3C31.0933 26.3 30.0533 25.95 29.2533 25.25C28.4533 24.55 28.0533 23.58 28.0533 22.34C28.0533 21.34 28.3033 20.54 28.8033 19.94C29.3033 19.32 29.8133 18.94 30.3333 18.8C30.8533 18.66 31.6533 18.54 32.7333 18.44C33.8133 18.34 34.6033 18.23 35.1033 18.11C35.6233 17.97 35.9933 17.83 36.2133 17.69C36.4333 17.53 36.5433 17.27 36.5433 16.91L36.5133 14.18C36.5133 13.4 36.4133 12.84 36.2133 12.5C36.0133 12.16 35.5933 11.99 34.9533 11.99C34.5533 11.99 34.2133 12.08 33.9333 12.26C33.6733 12.44 33.5433 12.67 33.5433 12.95C33.5433 13.17 33.7533 13.45 34.1733 13.79C34.6133 14.11 34.8333 14.6 34.8333 15.26C34.8333 15.88 34.5533 16.43 33.9933 16.91C33.4533 17.39 32.5633 17.63 31.3233 17.63C30.6433 17.63 30.0433 17.45 29.5233 17.09C29.0233 16.71 28.7733 16.21 28.7733 15.59C28.7733 14.35 29.4633 13.36 30.8433 12.62C32.2433 11.88 33.9033 11.51 35.8233 11.51C37.4433 11.51 38.9333 11.85 40.2933 12.53C41.6533 13.19 42.3333 14.22 42.3333 15.62V22.49C42.3333 23.13 42.3933 23.62 42.5133 23.96C42.6133 24.32 42.8633 24.5 43.2633 24.5ZM36.5433 23.63V17.9L36.4533 17.87C36.2733 18.11 35.9333 18.34 35.4333 18.56C34.9533 18.76 34.6133 18.96 34.4133 19.16C34.2333 19.36 34.0833 19.75 33.9633 20.33C33.8633 20.89 33.8133 21.47 33.8133 22.07C33.8133 22.97 33.8833 23.69 34.0233 24.23C34.1633 24.77 34.4833 25.04 34.9833 25.04C35.3633 25.04 35.6933 24.89 35.9733 24.59C36.2733 24.29 36.4633 23.97 36.5433 23.63ZM55.2391 13.85C55.1591 13.35 54.9391 12.97 54.5791 12.71C54.2191 12.45 53.7991 12.32 53.3191 12.32C52.6991 12.32 52.2291 12.62 51.9091 13.22C51.6091 13.8 51.4091 14.47 51.3091 15.23C51.2291 15.97 51.1791 16.65 51.1591 17.27C51.1391 17.87 51.1291 18.43 51.1291 18.95V20.3C51.1291 20.68 51.1691 21.34 51.2491 22.28C51.3491 23.22 51.5491 23.99 51.8491 24.59C52.1691 25.19 52.6491 25.49 53.2891 25.49C54.3891 25.49 55.0291 24.96 55.2091 23.9C55.2491 23.44 55.2791 22.63 55.2991 21.47C55.3191 20.29 55.3291 19.41 55.3291 18.83V16.07C55.3291 15.23 55.2991 14.49 55.2391 13.85ZM55.3291 11.69V7.85L55.2691 6.47C55.2691 5.81 55.1691 5.37 54.9691 5.15C54.7691 4.93 54.3391 4.78 53.6791 4.7L52.2691 4.61V4.13H61.0891V22.7L61.1191 23.93C61.1191 24.47 61.2091 24.85 61.3891 25.07C61.5891 25.27 61.9591 25.4 62.4991 25.46L63.4591 25.52V26H55.3891V24.5C55.1691 24.9 54.8091 25.3 54.3091 25.7C53.8291 26.1 52.9091 26.3 51.5491 26.3C49.6291 26.3 48.0691 25.63 46.8691 24.29C45.6691 22.95 45.0691 21.13 45.0691 18.83C45.0691 16.61 45.6691 14.83 46.8691 13.49C48.0691 12.15 49.6291 11.48 51.5491 11.48C52.9491 11.48 53.8791 11.67 54.3391 12.05C54.7991 12.43 55.1391 12.83 55.3591 13.25L55.3291 11.69ZM73.212 26H63.492V25.52L64.212 25.49C64.792 25.43 65.142 25.29 65.262 25.07C65.382 24.85 65.442 24.37 65.442 23.63L65.472 22.25V15.08L65.442 13.85C65.402 13.37 65.342 13.01 65.262 12.77C65.182 12.53 64.822 12.38 64.182 12.32L63.372 12.26V11.78H71.232V22.25L71.262 23.63C71.262 24.35 71.322 24.83 71.442 25.07C71.562 25.29 71.912 25.43 72.492 25.49L73.212 25.52V26ZM65.412 6.77C65.412 5.99 65.692 5.33 66.252 4.79C66.832 4.23 67.522 3.95 68.322 3.95C69.142 3.95 69.832 4.22 70.392 4.76C70.972 5.28 71.262 5.95 71.262 6.77C71.262 7.57 70.972 8.25 70.392 8.81C69.832 9.35 69.142 9.62 68.322 9.62C67.522 9.62 66.832 9.35 66.252 8.81C65.692 8.25 65.412 7.57 65.412 6.77ZM90.0973 18.89C90.0973 21.01 89.2873 22.78 87.6673 24.2C86.0673 25.6 84.1773 26.3 81.9973 26.3C79.6973 26.3 77.7673 25.6 76.2073 24.2C74.6673 22.78 73.8973 21.01 73.8973 18.89C73.8973 16.77 74.6773 15.01 76.2373 13.61C77.8173 12.19 79.7373 11.48 81.9973 11.48C84.2173 11.48 86.1173 12.18 87.6973 13.58C89.2973 14.98 90.0973 16.75 90.0973 18.89ZM84.1273 18.86C84.1273 18.58 84.1073 18.02 84.0673 17.18C84.0273 16.34 84.0073 15.84 84.0073 15.68C84.0073 14.6 83.8373 13.71 83.4973 13.01C83.1773 12.31 82.6673 11.96 81.9673 11.96C81.3273 11.96 80.8373 12.33 80.4973 13.07C80.1573 13.79 79.9873 14.66 79.9873 15.68C79.9873 16.06 79.9673 16.53 79.9273 17.09C79.9073 17.63 79.8873 18.22 79.8673 18.86C79.8673 19.14 79.8873 19.72 79.9273 20.6C79.9673 21.46 79.9873 21.96 79.9873 22.1C79.9873 23.18 80.1473 24.07 80.4673 24.77C80.8073 25.47 81.3173 25.82 81.9973 25.82C82.6573 25.82 83.1573 25.46 83.4973 24.74C83.8373 24.02 84.0073 23.14 84.0073 22.1C84.0073 21.7 84.0173 21.23 84.0373 20.69C84.0573 20.13 84.0873 19.52 84.1273 18.86ZM111.347 26.36C107.907 26.36 105.077 25.3 102.857 23.18C100.657 21.04 99.5566 18.34 99.5566 15.08C99.5566 11.74 100.647 9.03 102.827 6.95C105.027 4.85 107.857 3.8 111.317 3.8C112.797 3.8 114.077 4.05 115.157 4.55L118.337 6.35C118.937 6.35 119.337 6.15 119.537 5.75C119.737 5.33 119.877 4.74 119.957 3.98H120.557V13.46H120.047C119.167 11.02 118.537 9.37 118.157 8.51C117.797 7.65 117.187 6.82 116.327 6.02C115.467 5.22 114.367 4.82 113.027 4.82C111.287 4.82 109.997 5.8 109.157 7.76C108.317 9.72 107.897 12.01 107.897 14.63C107.897 17.45 108.397 19.9 109.397 21.98C110.417 24.04 111.907 25.07 113.867 25.07C115.687 25.07 117.147 24.41 118.247 23.09C119.347 21.77 120.077 20.05 120.437 17.93L120.947 18.02C120.667 20.42 119.757 22.41 118.217 23.99C116.677 25.57 114.387 26.36 111.347 26.36ZM131.806 26H122.086V25.52L122.806 25.49C123.386 25.43 123.736 25.29 123.856 25.07C123.976 24.85 124.036 24.37 124.036 23.63L124.066 22.25V15.08L124.036 13.85C123.996 13.37 123.936 13.01 123.856 12.77C123.776 12.53 123.416 12.38 122.776 12.32L121.966 12.26V11.78H129.826V22.25L129.856 23.63C129.856 24.35 129.916 24.83 130.036 25.07C130.156 25.29 130.506 25.43 131.086 25.49L131.806 25.52V26ZM124.006 6.77C124.006 5.99 124.286 5.33 124.846 4.79C125.426 4.23 126.116 3.95 126.916 3.95C127.736 3.95 128.426 4.22 128.986 4.76C129.566 5.28 129.856 5.95 129.856 6.77C129.856 7.57 129.566 8.25 128.986 8.81C128.426 9.35 127.736 9.62 126.916 9.62C126.116 9.62 125.426 9.35 124.846 8.81C124.286 8.25 124.006 7.57 124.006 6.77ZM134.021 12.92H131.981V12.11C132.661 11.93 133.371 11.6 134.111 11.12C134.851 10.62 135.551 10.05 136.211 9.41C136.891 8.75 137.451 8.11 137.891 7.49C138.351 6.87 138.701 6.31 138.941 5.81H139.781V11.78H143.711L143.291 12.92H139.781V21.08L139.841 22.61C139.841 23.47 140.031 24.12 140.411 24.56C140.791 25 141.271 25.22 141.851 25.22C142.631 25.22 143.201 24.9 143.561 24.26C143.921 23.6 144.101 22.87 144.101 22.07H144.521C144.521 23.19 144.191 24.18 143.531 25.04C142.871 25.88 141.451 26.3 139.271 26.3C137.891 26.3 136.671 25.94 135.611 25.22C134.551 24.5 134.021 23.49 134.021 22.19V12.92ZM145.971 13.82C145.731 13.32 145.531 12.97 145.371 12.77C145.211 12.55 145.001 12.41 144.741 12.35L143.571 12.26V11.78H153.381V12.26H152.931C152.771 12.26 152.561 12.29 152.301 12.35C152.061 12.39 151.941 12.59 151.941 12.95C151.941 13.11 151.981 13.32 152.061 13.58C152.141 13.82 152.221 14.06 152.301 14.3L154.641 19.88C154.841 19.4 155.161 18.62 155.601 17.54C156.041 16.44 156.391 15.51 156.651 14.75C156.911 13.99 157.041 13.44 157.041 13.1C157.041 12.84 156.991 12.66 156.891 12.56C156.811 12.46 156.571 12.38 156.171 12.32L155.211 12.26V11.78H160.221V12.26C160.101 12.26 159.971 12.27 159.831 12.29C159.711 12.29 159.471 12.32 159.111 12.38C158.771 12.44 158.481 12.62 158.241 12.92C158.001 13.22 157.551 14.2 156.891 15.86C156.251 17.52 155.551 19.28 154.791 21.14C154.051 23 153.211 24.93 152.271 26.93C151.351 28.93 150.481 30.43 149.661 31.43C148.861 32.43 147.781 32.93 146.421 32.93C145.621 32.93 144.881 32.66 144.201 32.12C143.541 31.58 143.211 30.88 143.211 30.02C143.211 29.22 143.481 28.54 144.021 27.98C144.561 27.42 145.251 27.14 146.091 27.14C146.951 27.14 147.621 27.39 148.101 27.89C148.581 28.39 148.821 28.98 148.821 29.66C148.821 30.34 148.631 30.89 148.251 31.31C147.871 31.73 147.681 31.98 147.681 32.06C147.861 32.04 148.051 32.02 148.251 32C148.691 31.8 149.111 31.42 149.511 30.86C149.931 30.3 150.301 29.72 150.621 29.12C150.941 28.52 151.281 27.81 151.641 26.99C151.201 25.95 150.651 24.67 149.991 23.15C149.351 21.61 148.631 19.92 147.831 18.08C147.051 16.24 146.431 14.82 145.971 13.82Z" fill="white"/>
</g>
<defs>
<clipPath id="clip0_87_740">
<rect width="159" height="33" fill="white"/>
</clipPath>
</defs>
</svg>
